<?xml version="1.0" encoding="UTF-8"?>
<svg width="24px" height="25px" viewBox="0 0 24 25" version="1.1" xmlns="http://www.w3.org/2000/svg" xmlns:xlink="http://www.w3.org/1999/xlink">
    <!-- Generator: Sketch 63.1 (92452) - https://sketch.com -->
    <title>icon/social/songkick</title>
    <desc>Created with Sketch.</desc>
    <g id="icon/social/songkick" stroke="none" stroke-width="1" fill="none" fill-rule="evenodd">
        <rect id="container" x="0" y="0" width="24" height="24"></rect>
        <path d="M6.54933258,18.7826373 C4.69311805,18.7826373 3.17772418,18.4419371 1.95210613,17.1791791 L3.85984705,15.2716789 C4.48923964,15.9014929 5.59603396,16.1231286 6.56618701,16.1231286 C7.74136216,16.1231286 8.30273508,15.7318049 8.30273508,15.0336101 C8.30273508,14.7438343 8.23555813,14.5048625 8.06490703,14.3168152 C7.91177249,14.1637409 7.65636767,14.0439541 7.26474295,13.9930296 L5.80039393,13.7893318 C4.72736866,13.6358361 3.91059093,13.2779202 3.36565108,12.7160657 C2.80319466,12.1373568 2.53129658,11.3200975 2.53129658,10.2818646 C2.53129658,8.06821579 4.19946382,6.44982931 6.9581127,6.44982931 C8.69490155,6.44982931 10.0062364,6.85885022 11.0444693,7.89756468 L9.17140038,9.77051325 C8.40530632,9.00405803 7.40048131,9.05522327 6.87293764,9.05522327 C5.83440376,9.05522327 5.4087692,9.65162932 5.4087692,10.1789924 C5.4087692,10.3326085 5.45987424,10.5535219 5.64750017,10.7409673 C5.80039393,10.894463 6.05531718,11.0474771 6.48161388,11.0987627 L7.94524057,11.3030625 C9.03560182,11.4560165 9.81867069,11.7962954 10.3297813,12.307707 C10.9767506,12.9377015 11.2311923,13.8396543 11.2311923,14.9655302 C11.2311923,17.4345839 9.10380207,18.7826373 6.54933258,18.7826373 L6.54933258,18.7826373 Z M20.8119729,2.65198441 C19.1822096,1.43190424 17.3726458,0.61277893 15.0900744,0.236804746 L15.0900744,11.113089 L18.3508047,6.57310743 L21.916841,6.57310743 L17.809958,12.2949457 C17.809958,12.2949457 18.7543479,13.8037784 19.3183694,14.7000729 C19.8962355,15.6022063 20.4484589,15.8475587 21.285462,15.8475587 C21.5356901,15.8475587 21.5353289,15.848883 21.8523728,15.848883 L21.8523728,18.6630913 L20.9809987,18.6652583 C19.1728193,18.6652583 18.083361,18.3355736 17.2664629,17.0864195 C16.7590843,16.2784903 15.0900744,13.6569041 15.0900744,13.6569041 L15.0900744,18.6517747 L12.1101509,18.6517747 L12.1101509,0.00168544303 C12.0727702,0.00150485985 12.0374361,-1.77635684e-14 11.9999349,-1.77635684e-14 C8.14761412,-1.77635684e-14 5.49099474,0.928077166 3.1893417,2.65198441 C-0.131823793,5.13741094 0.000724262737,8.45231622 0.000724262737,11.998067 C0.000724262737,15.546045 -0.131823793,18.8650435 3.1893417,21.3508311 C5.49099474,23.0748588 8.14761412,24.0020932 11.9999349,24.0020932 C15.8516538,24.0020932 18.5092965,23.0748588 20.8119729,21.3508311 C24.132416,18.8650435 23.999266,15.546045 23.999266,11.998067 C23.999266,8.45231622 24.132416,5.13741094 20.8119729,2.65198441 L20.8119729,2.65198441 Z" id="icon/social/songkick-logo" fill="currentColor"></path>
    </g>
</svg>